<?xml version="1.0" standalone="no"?><!DOCTYPE svg PUBLIC "-//W3C//DTD SVG 1.1//EN" "http://www.w3.org/Graphics/SVG/1.1/DTD/svg11.dtd"><svg t="1579416186414" class="icon" viewBox="0 0 1024 1024" version="1.1" xmlns="http://www.w3.org/2000/svg" p-id="2282" width="16" height="16" xmlns:xlink="http://www.w3.org/1999/xlink"><defs><style type="text/css"></style></defs><path d="M512 1023.986347c-282.832213 0-512-96.488107-512-180.626774 0-60.654933 119.668053-113.145173 292.666027-137.581226l219.446613 213.746346 218.330453-213.746346C904.000853 730.077867 1024 782.544213 1024 843.359573c0 84.012373-229.167787 180.626773-512 180.626774z m15.27808-250.565974l-15.08352 14.011734-15.192747-13.919574c-11.332267-10.134187-275.613013-252.95872-275.613013-490.9056 0-155.81184 130.33472-282.596693 290.56-282.596693 160.27648 0 290.6112 126.78144 290.6112 282.68544-0.003413 231.652693-264.116907 480.211627-275.28192 490.724693z m129.303893-436.329813c15.08352-92.689067-68.775253-171.424427-167.635626-157.160107-61.559467 8.77568-111.9744 56.098133-121.391787 113.834667-15.192747 92.658347 68.754773 171.281067 167.66976 157.1328 61.525333-8.77568 111.858347-56.09472 121.357653-113.80736z" p-id="2283"></path></svg>