<svg class="icon" viewBox="0 0 1024 1024" xmlns="http://www.w3.org/2000/svg" width="48" height="48"><path d="M906.976 131.214L528.806 2.337C524.241.78 518.12 0 512 0s-12.242.779-16.805 2.337L117.024 131.214c-9.237 3.116-16.805 13.8-16.805 23.594V691.68c0 9.794 6.343 22.704 14.022 28.825l383.625 298.931c3.895 3.005 8.903 4.563 14.023 4.563s10.239-1.558 14.023-4.563l383.624-298.931c7.68-6.01 14.023-18.92 14.023-28.825V154.808c.222-9.794-7.346-20.367-16.583-23.594zm-63.325 539.1L512 928.733l-331.65-258.42V194.427L512 81.355l331.65 113.073v475.885zM392.027 446.615a17.922 17.922 0 0 0-14.468-7.345h-61.433c-7.234 0-11.463 8.235-7.234 14.134l140.673 193.648a17.918 17.918 0 0 0 28.936 0L715.108 321.3c4.23-5.899 0-14.134-7.234-14.134h-61.433c-5.676 0-11.13 2.782-14.468 7.345l-167.94 231.265-72.006-99.161z"/></svg>